<svg xmlns="http://www.w3.org/2000/svg" width="30" height="120"><svg height="30" viewBox="0 0 24 24" width="30"><path d="M15.997 3.985h2.191V.169C17.81.117 16.51 0 14.996 0c-3.159 0-5.323 1.987-5.323 5.639V9H6.187v4.266h3.486V24h4.274V13.267h3.345l.531-4.266h-3.877V6.062c.001-1.233.333-2.077 2.051-2.077z" fill="#f2f2f2"/></svg><svg height="30" viewBox="0 0 24 24" width="30" y="30"><path d="M23.309 14.547C25.047 6.737 18.205-.358 10.17 1.004 5.808-1.703 0 1.356 0 6.546c0 1.207.333 2.337.912 3.311-1.615 7.828 5.283 14.821 13.311 13.366a6.695 6.695 0 003.139.777c4.949 0 8.118-5.133 5.947-9.453zm-11.213 5.332c-2.342 0-4.63-.565-5.984-2.499-2.018-2.854.643-4.282 1.949-3.194 1.09.919.748 3.142 3.949 3.142 1.411 0 3.153-.602 3.153-2.001 0-2.815-6.245-1.483-8.728-4.552-.912-1.124-1.084-3.107.036-4.545 1.952-2.512 7.68-2.665 10.143-.768 2.274 1.76 1.66 4.096-.175 4.096-2.207 0-1.047-2.888-4.61-2.888-2.583 0-3.599 1.837-1.78 2.731 2.421 1.202 8.75.827 8.75 5.603-.008 3.357-3.247 4.875-6.703 4.875z" fill="#f2f2f2"/></svg><svg height="30" viewBox="0 0 24 24" width="30" y="60"><path d="M21.534 7.113A9.822 9.822 0 0024 4.559v-.001c-.893.391-1.843.651-2.835.777a4.894 4.894 0 002.165-2.719 9.845 9.845 0 01-3.12 1.191 4.919 4.919 0 00-8.511 3.364c0 .39.033.765.114 1.122-4.09-.2-7.71-2.16-10.142-5.147a4.962 4.962 0 00-.674 2.487c0 1.704.877 3.214 2.186 4.089A4.863 4.863 0 01.96 9.116v.054a4.943 4.943 0 003.942 4.835c-.401.11-.837.162-1.29.162-.315 0-.633-.018-.931-.084.637 1.948 2.447 3.381 4.597 3.428a9.89 9.89 0 01-6.101 2.098c-.403 0-.79-.018-1.177-.067a13.856 13.856 0 007.548 2.208c8.683 0 14.342-7.244 13.986-14.637z" fill="#f2f2f2"/></svg><svg height="30" viewBox="0 0 24 24" width="30" y="90"><path d="M19.915 13.028c-.388-.49-.277-.708 0-1.146.005-.005 3.208-4.431 3.538-5.932l.002-.001c.164-.547 0-.949-.793-.949h-2.624c-.668 0-.976.345-1.141.731 0 0-1.336 3.198-3.226 5.271-.61.599-.892.791-1.225.791-.164 0-.419-.192-.419-.739V5.949c0-.656-.187-.949-.74-.949H9.161c-.419 0-.668.306-.668.591 0 .622.945.765 1.043 2.515v3.797c0 .832-.151.985-.486.985-.892 0-3.057-3.211-4.34-6.886-.259-.713-.512-1.001-1.185-1.001H.9c-.749 0-.9.345-.9.731 0 .682.892 4.073 4.148 8.553C6.318 17.343 9.374 19 12.154 19c1.671 0 1.875-.368 1.875-1.001 0-2.922-.151-3.198.686-3.198.388 0 1.056.192 2.616 1.667C19.114 18.217 19.407 19 20.405 19h2.624c.748 0 1.127-.368.909-1.094-.499-1.527-3.871-4.668-4.023-4.878z" fill="#f2f2f2"/></svg></svg>